<?xml version="1.0" encoding="UTF-8"?>
<svg width="118px" height="17px" viewBox="0 0 118 17" version="1.1" xmlns="http://www.w3.org/2000/svg" xmlns:xlink="http://www.w3.org/1999/xlink">
    <title>Elements/Logo</title>
    <defs>
        <path d="M8.52824197,0.0584887931 C11.4135992,0.0584887931 13.9592948,1.46566416 15.5091631,3.61163721 L15.6700446,3.84148879 L15.6516708,3.85439387 C15.2872162,4.09661343 12.2942483,6.16881638 12.2942483,6.16881638 C11.5166476,4.92268707 10.1075158,4.08397155 8.52824197,4.08397155 C6.04981633,4.08397155 4.10618617,6.072825 4.10618617,8.54119569 C4.10618617,11.0092733 6.04981633,12.9742388 8.52824197,12.9742388 C10.1318854,12.9742388 11.5166476,12.1597043 12.318618,10.913575 L15.6471589,13.2138509 C14.1163273,15.4902388 11.5166476,17.0000147 8.52824197,17.0000147 C3.81464165,17.0000147 4.45786733e-05,13.1899629 4.45786733e-05,8.54119569 C4.45786733e-05,3.84435948 3.81464165,0.0584887931 8.52824197,0.0584887931 Z M24.3141789,0.0585327586 C29.0347681,0.0585327586 32.7917673,3.84440345 32.7917673,8.5410931 C32.7917673,13.1900069 29.0347681,17.0000586 24.3141789,17.0000586 C19.6420491,17.0000586 15.8607466,13.1900069 15.8607466,8.5410931 C15.8607466,3.84440345 19.6420491,0.0585327586 24.3141789,0.0585327586 Z M39.0520806,0.265625 L39.0520806,9.27651086 L46.5018884,0.265625 L50.1900452,0.265625 L50.1900452,17 L46.1111141,17 L46.1111141,7.8677569 L38.5389652,17 L34.9728507,17 L34.9728507,0.265625 L39.0520806,0.265625 Z M60.352595,0.0584887931 C63.2380957,0.0584887931 65.7837962,1.46566416 67.3336648,3.61163721 L67.4940446,3.84148879 L67.4761685,3.85439387 C67.1116905,4.09661343 64.1186013,6.16881638 64.1186013,6.16881638 C63.3411493,4.92268707 61.9320174,4.08397155 60.352595,4.08397155 C57.874318,4.08397155 55.9305392,6.072825 55.9305392,8.54119569 C55.9305392,11.0092733 57.874318,12.9742388 60.352595,12.9742388 C61.9562385,12.9742388 63.3411493,12.1597043 64.142971,10.913575 L67.4716605,13.2138509 C65.9408289,15.4902388 63.3411493,17.0000147 60.352595,17.0000147 C55.6389947,17.0000147 51.8243976,13.1899629 51.8243976,8.54119569 C51.8243976,3.84435948 55.6389947,0.0584887931 60.352595,0.0584887931 Z M79.6075837,0.265625 L79.6075837,3.81172193 L72.8866961,3.81172193 L72.8866961,7.01781066 L78.7915116,7.01781066 L78.7915116,10.4908259 L72.8866961,10.4908259 L72.8866961,13.4539031 L79.8235294,13.4539031 L79.8235294,17 L68.8778281,17 L68.8778281,0.265625 L79.6075837,0.265625 Z M89.0901852,0.265625 C92.9915642,0.265625 94.7737557,3.05892089 94.7737557,5.85177116 C94.7737557,8.66927909 92.9915642,11.4138538 89.0901852,11.4138538 L86.2484,11.4138538 L86.2484,17 L82.2262443,17 L82.2262443,0.265625 L89.0901852,0.265625 Z M102.426077,0.265625 L102.426077,13.4539031 L106.78733,13.4539031 L106.78733,17 L93.9728507,17 L93.9728507,13.4539031 L98.3341044,13.4539031 L98.3341044,0.265625 L102.426077,0.265625 Z M117.876642,0.272748216 L117.876642,3.86900983 L111.324761,3.86900983 L116.510501,16.9576606 L111.957089,16.9576606 L105.329205,0.272748216 L117.876642,0.272748216 Z M24.3141789,4.08401552 C21.8576285,4.08401552 19.9310377,6.07286897 19.9310377,8.5410931 C19.9310377,11.0093172 21.8576285,12.9742828 24.3141789,12.9742828 C26.7708767,12.9742828 28.7456322,11.0093172 28.7456322,8.5410931 C28.7456322,6.07286897 26.7708767,4.08401552 24.3141789,4.08401552 Z M88.8973845,3.81172193 L86.2484,3.81172193 L86.2484,7.9163295 L88.8973845,7.9163295 C90.2220977,7.9163295 90.7037312,6.84773229 90.7037312,5.85177116 C90.7037312,4.85610712 90.2220977,3.81172193 88.8973845,3.81172193 Z" id="path-1"></path>
    </defs>
    <g id="Design" stroke="none" stroke-width="1" fill="none" fill-rule="evenodd">
        <g id="C7-Home" transform="translate(-641.000000, -60.000000)">
            <g id="Elements/Logo" transform="translate(641.000000, 60.000000)">
                <mask id="mask-2" fill="white">
                    <use xlink:href="#path-1"></use>
                </mask>
                <use id="Concept7" fill="#FFFFFF" fill-rule="evenodd" xlink:href="#path-1"></use>
            </g>
        </g>
    </g>
</svg>